FILE "multiple (Track 01).bin" BINARY
  TRACK 01 MODE2/2352
    INDEX 01 00:00:00
FILE "multiple (Track 02).bin" BINARY
  TRACK 02 AUDIO
    INDEX 00 00:00:00
    INDEX 01 00:02:00
FILE "multiple (Track 03).bin" BINARY
  TRACK 03 AUDIO
    INDEX 00 00:00:00
    INDEX 01 00:02:00
